<svg width="50" height="50" viewBox="0 0 50 50" fill="none" xmlns="http://www.w3.org/2000/svg">
<path d="M25.0497 49.6411C22.1224 49.6411 20.052 49.2128 18.8382 48.356C17.6245 47.4279 16.8749 46.2856 16.5893 44.929C16.3751 43.5725 16.268 42.1803 16.268 40.7524V8.94568C16.268 7.51777 16.3751 6.16125 16.5893 4.87613C16.8749 3.51961 17.6245 2.41298 18.8382 1.55624C20.1234 0.699491 22.2295 0.271118 25.1567 0.271118C28.084 0.271118 30.1544 0.699491 31.3682 1.55624C32.5819 2.41298 33.2958 3.51961 33.51 4.87613C33.7956 6.23265 33.9384 7.62486 33.9384 9.05277V40.8595C33.9384 42.2874 33.7956 43.6796 33.51 45.0361C33.2958 46.3926 32.5819 47.4993 31.3682 48.356C30.1544 49.2128 28.0483 49.6411 25.0497 49.6411ZM8.55728 33.7913C7.27216 33.7913 5.98704 33.6842 4.70192 33.4701C3.4168 33.1845 2.34587 32.4348 1.48912 31.2211C0.703772 29.936 0.311096 27.8298 0.311096 24.9026C0.311096 21.904 0.739469 19.7978 1.59622 18.5841C2.52436 17.3704 3.66669 16.6564 5.0232 16.4422C6.45111 16.1566 7.87902 16.0138 9.30694 16.0138H41.0066C42.4345 16.0138 43.8267 16.1566 45.1832 16.4422C46.5397 16.6564 47.6464 17.406 48.5031 18.6912C49.3598 19.9049 49.7882 22.0111 49.7882 25.0097C49.7882 27.9369 49.3598 30.0074 48.5031 31.2211C47.7177 32.4348 46.6825 33.1845 45.3974 33.4701C44.1837 33.6842 42.8985 33.7913 41.542 33.7913H8.55728Z" fill="white"/>
</svg>
