<svg width="44" height="55" viewBox="0 0 44 55" fill="none" xmlns="http://www.w3.org/2000/svg">
<path d="M7.82717 35.2408C6.86373 35.2408 5.80396 35.1424 4.64783 34.9455C3.55594 34.683 2.62462 34.0268 1.85387 32.9769C1.08313 31.927 0.697754 30.1552 0.697754 27.6616C0.697754 25.168 1.11524 23.429 1.95022 22.4447C2.78519 21.3948 3.78074 20.7714 4.93686 20.5745C6.09299 20.3777 7.18488 20.2792 8.21254 20.2792H35.6704C36.6981 20.2792 37.79 20.3777 38.9461 20.5745C40.1022 20.7714 41.0657 21.3948 41.8364 22.4447C42.6714 23.4947 43.0889 25.2664 43.0889 27.76C43.0889 30.188 42.7035 31.927 41.9327 32.9769C41.2262 34.0268 40.2949 34.683 39.1388 34.9455C37.9827 35.1424 36.7944 35.2408 35.5741 35.2408H7.82717ZM21.797 54.5334C18.7782 54.5334 16.6586 53.9428 15.4383 52.7616C14.2179 51.5148 13.6078 49.3821 13.6078 46.3636C13.6078 43.1481 14.2179 40.917 15.4383 39.6702C16.6586 38.4234 18.8103 37.8 21.8933 37.8C24.9121 37.8 26.9995 38.4234 28.1556 39.6702C29.376 40.917 29.9862 43.1153 29.9862 46.2651C29.9862 49.3493 29.376 51.5148 28.1556 52.7616C26.9353 53.9428 24.8157 54.5334 21.797 54.5334ZM21.797 17.72C18.7782 17.72 16.6586 17.1294 15.4383 15.9483C14.2179 14.7015 13.6078 12.5688 13.6078 9.55022C13.6078 6.3348 14.2179 4.10369 15.4383 2.85689C16.6586 1.61009 18.8103 0.986694 21.8933 0.986694C24.9121 0.986694 26.9995 1.61009 28.1556 2.85689C29.376 4.10369 29.9862 6.30199 29.9862 9.45179C29.9862 12.536 29.376 14.7015 28.1556 15.9483C26.9353 17.1294 24.8157 17.72 21.797 17.72Z" fill="white"/>
</svg>
