<svg width="27" height="31" viewBox="0 0 27 31" fill="none" xmlns="http://www.w3.org/2000/svg">
<path d="M16.3926 20.3799C16.9053 20.38 17.3213 20.7958 17.3213 21.3086V30.9512H9.67871V21.3086C9.67871 20.7958 10.0946 20.3799 10.6074 20.3799H16.3926ZM13.5 0C15.6402 0 17.4369 1.54008 21.0303 4.62012L22.959 6.27344C24.9471 7.97756 25.9414 8.82961 26.4707 9.98047C26.9999 11.1312 27 12.4404 27 15.0586V23.2373C27 26.8736 26.9998 28.6916 25.8701 29.8213C24.7441 30.9473 22.9341 30.9502 19.3213 30.9502V21.3086C19.3213 19.6912 18.0099 18.38 16.3926 18.3799H10.6074C8.99002 18.3799 7.67871 19.6912 7.67871 21.3086V30.9502C4.06587 30.9502 2.25592 30.9473 1.12988 29.8213C0.000203046 28.6916 1.51562e-09 26.8736 0 23.2373V15.0586C1.48523e-09 12.4404 5.21104e-05 11.1312 0.529297 9.98047C1.05862 8.82961 2.05288 7.97756 4.04102 6.27344L5.96973 4.62012C9.5631 1.54008 11.3598 1.14372e-07 13.5 0Z" fill="white"/>
</svg>
