<svg width="50" height="50" viewBox="0 0 50 50" fill="none" xmlns="http://www.w3.org/2000/svg">
<path d="M45.6947 3.61319C47.3361 5.24349 48.3778 6.68568 48.8197 7.93976C49.3248 9.19384 49.2932 10.4166 48.725 11.6079C48.22 12.7993 47.2099 14.1474 45.6947 15.6523L15.4862 45.9383C14.0342 47.3805 12.7084 48.3524 11.5089 48.8541C10.3094 49.4184 9.07837 49.4498 7.81574 48.9481C6.61624 48.4465 5.19578 47.4432 3.55436 45.9383C1.97607 44.308 0.934393 42.8658 0.42934 41.6118C-0.0125813 40.3577 0.0505503 39.135 0.618735 37.9436C1.18692 36.6895 2.16546 35.3727 3.55436 33.9932L33.7628 3.61319C36.0987 1.41855 38.0874 0.289882 39.7288 0.227179C41.3702 0.101773 43.3588 1.23044 45.6947 3.61319ZM3.55436 3.61319C5.13265 2.04559 6.52154 1.04233 7.72104 0.603403C8.98368 0.101771 10.2147 0.101771 11.4142 0.603403C12.6769 1.10503 14.0342 2.1083 15.4862 3.61319L45.6947 33.9932C47.1467 35.4354 48.1568 36.7522 48.725 37.9436C49.2932 39.135 49.3563 40.3577 48.9144 41.6118C48.4725 42.8658 47.3993 44.308 45.6947 45.9383C44.0533 47.5059 42.6328 48.5092 41.4333 48.9481C40.2338 49.4498 39.0343 49.4184 37.8348 48.8541C36.6985 48.3524 35.3411 47.3805 33.7628 45.9383L3.55436 15.6523C2.10233 14.2102 1.09222 12.8934 0.524038 11.702C0.0189845 10.5106 -0.0125813 9.2879 0.42934 8.03382C0.934393 6.71703 1.97607 5.24349 3.55436 3.61319Z" fill="white"/>
</svg>
