<svg width="41" height="50" viewBox="0 0 41 50" fill="none" xmlns="http://www.w3.org/2000/svg">
<path d="M8.14349 34.0215C7.07256 34.0215 5.89453 33.9144 4.60941 33.7003C3.32429 33.4147 2.21766 32.665 1.28951 31.4513C0.432768 30.1662 0.00439453 28.0243 0.00439453 25.0257C0.00439453 22.0985 0.468466 20.0637 1.39661 18.9214C2.32475 17.7077 3.43138 16.9937 4.7165 16.7795C6.00162 16.4939 7.17965 16.3511 8.25058 16.3511H31.9182C33.0605 16.3511 34.2743 16.4939 35.5594 16.7795C36.8445 16.9937 37.9154 17.7077 38.7722 18.9214C39.7003 20.1351 40.1644 22.2056 40.1644 25.1328C40.1644 28.06 39.736 30.1662 38.8793 31.4513C38.0225 32.665 36.9516 33.4147 35.6665 33.7003C34.4528 33.9144 33.2033 34.0215 31.9182 34.0215H8.14349Z" fill="white"/>
</svg>
